<?xml version="1.0" encoding="UTF-8" standalone="no"?>
<!DOCTYPE svg PUBLIC "-//W3C//DTD SVG 1.1//EN"
 "http://www.w3.org/Graphics/SVG/1.1/DTD/svg11.dtd">
<!-- Generated by graphviz version 2.40.1 (20161225.0304)
 -->
<!-- Title: %3 Pages: 1 -->
<svg width="311pt" height="506pt"
 viewBox="0.00 0.00 310.50 506.00" xmlns="http://www.w3.org/2000/svg" xmlns:xlink="http://www.w3.org/1999/xlink">
<g id="graph0" class="graph" transform="scale(1 1) rotate(0) translate(4 502)">
<title>%3</title>
<polygon fill="#ffffff" stroke="transparent" points="-4,4 -4,-502 306.5,-502 306.5,4 -4,4"/>
<!-- 139646402412840 -->
<g id="node1" class="node">
<title>139646402412840</title>
<polygon fill="#caff70" stroke="#000000" points="194.5,-21 85.5,-21 85.5,0 194.5,0 194.5,-21"/>
<text text-anchor="middle" x="140" y="-7.4" font-family="Times,serif" font-size="12.00" fill="#000000">TanhBackward</text>
</g>
<!-- 139646402412728 -->
<g id="node2" class="node">
<title>139646402412728</title>
<polygon fill="#d3d3d3" stroke="#000000" points="202.5,-78 77.5,-78 77.5,-57 202.5,-57 202.5,-78"/>
<text text-anchor="middle" x="140" y="-64.4" font-family="Times,serif" font-size="12.00" fill="#000000">AddmmBackward</text>
</g>
<!-- 139646402412728&#45;&gt;139646402412840 -->
<g id="edge1" class="edge">
<title>139646402412728&#45;&gt;139646402412840</title>
<path fill="none" stroke="#000000" d="M140,-56.7787C140,-49.6134 140,-39.9517 140,-31.3097"/>
<polygon fill="#000000" stroke="#000000" points="143.5001,-31.1732 140,-21.1732 136.5001,-31.1732 143.5001,-31.1732"/>
</g>
<!-- 139646402412784 -->
<g id="node3" class="node">
<title>139646402412784</title>
<polygon fill="#add8e6" stroke="#000000" points="65,-148 1,-148 1,-114 65,-114 65,-148"/>
<text text-anchor="middle" x="33" y="-134.4" font-family="Times,serif" font-size="12.00" fill="#000000">fc3.bias</text>
<text text-anchor="middle" x="33" y="-121.4" font-family="Times,serif" font-size="12.00" fill="#000000"> (4)</text>
</g>
<!-- 139646402412784&#45;&gt;139646402412728 -->
<g id="edge2" class="edge">
<title>139646402412784&#45;&gt;139646402412728</title>
<path fill="none" stroke="#000000" d="M61.674,-113.9832C77.7158,-104.4631 97.5839,-92.6722 113.2956,-83.3479"/>
<polygon fill="#000000" stroke="#000000" points="115.1924,-86.2923 122.0058,-78.1788 111.6199,-80.2725 115.1924,-86.2923"/>
</g>
<!-- 139646402415248 -->
<g id="node4" class="node">
<title>139646402415248</title>
<polygon fill="#d3d3d3" stroke="#000000" points="196.5,-141.5 83.5,-141.5 83.5,-120.5 196.5,-120.5 196.5,-141.5"/>
<text text-anchor="middle" x="140" y="-127.9" font-family="Times,serif" font-size="12.00" fill="#000000">ReluBackward0</text>
</g>
<!-- 139646402415248&#45;&gt;139646402412728 -->
<g id="edge3" class="edge">
<title>139646402415248&#45;&gt;139646402412728</title>
<path fill="none" stroke="#000000" d="M140,-120.2281C140,-111.5091 140,-98.9699 140,-88.3068"/>
<polygon fill="#000000" stroke="#000000" points="143.5001,-88.1128 140,-78.1128 136.5001,-88.1129 143.5001,-88.1128"/>
</g>
<!-- 139646402415416 -->
<g id="node5" class="node">
<title>139646402415416</title>
<polygon fill="#d3d3d3" stroke="#000000" points="201.5,-211.5 76.5,-211.5 76.5,-190.5 201.5,-190.5 201.5,-211.5"/>
<text text-anchor="middle" x="139" y="-197.9" font-family="Times,serif" font-size="12.00" fill="#000000">AddmmBackward</text>
</g>
<!-- 139646402415416&#45;&gt;139646402415248 -->
<g id="edge4" class="edge">
<title>139646402415416&#45;&gt;139646402415248</title>
<path fill="none" stroke="#000000" d="M139.1519,-190.3685C139.2972,-180.1925 139.5206,-164.5606 139.7016,-151.8912"/>
<polygon fill="#000000" stroke="#000000" points="143.2034,-151.7806 139.8467,-141.7315 136.2041,-151.6805 143.2034,-151.7806"/>
</g>
<!-- 139646402415528 -->
<g id="node6" class="node">
<title>139646402415528</title>
<polygon fill="#add8e6" stroke="#000000" points="64,-288 0,-288 0,-254 64,-254 64,-288"/>
<text text-anchor="middle" x="32" y="-274.4" font-family="Times,serif" font-size="12.00" fill="#000000">fc2.bias</text>
<text text-anchor="middle" x="32" y="-261.4" font-family="Times,serif" font-size="12.00" fill="#000000"> (300)</text>
</g>
<!-- 139646402415528&#45;&gt;139646402415416 -->
<g id="edge5" class="edge">
<title>139646402415528&#45;&gt;139646402415416</title>
<path fill="none" stroke="#000000" d="M58.1751,-253.8761C75.1931,-242.7428 97.2534,-228.3109 114.0265,-217.3378"/>
<polygon fill="#000000" stroke="#000000" points="116.2832,-220.044 122.7354,-211.6404 112.4509,-214.1861 116.2832,-220.044"/>
</g>
<!-- 139646402415584 -->
<g id="node7" class="node">
<title>139646402415584</title>
<polygon fill="#d3d3d3" stroke="#000000" points="195.5,-281.5 82.5,-281.5 82.5,-260.5 195.5,-260.5 195.5,-281.5"/>
<text text-anchor="middle" x="139" y="-267.9" font-family="Times,serif" font-size="12.00" fill="#000000">ReluBackward0</text>
</g>
<!-- 139646402415584&#45;&gt;139646402415416 -->
<g id="edge6" class="edge">
<title>139646402415584&#45;&gt;139646402415416</title>
<path fill="none" stroke="#000000" d="M139,-260.3685C139,-250.1925 139,-234.5606 139,-221.8912"/>
<polygon fill="#000000" stroke="#000000" points="142.5001,-221.7315 139,-211.7315 135.5001,-221.7316 142.5001,-221.7315"/>
</g>
<!-- 139646402415752 -->
<g id="node8" class="node">
<title>139646402415752</title>
<polygon fill="#d3d3d3" stroke="#000000" points="200.5,-351.5 75.5,-351.5 75.5,-330.5 200.5,-330.5 200.5,-351.5"/>
<text text-anchor="middle" x="138" y="-337.9" font-family="Times,serif" font-size="12.00" fill="#000000">AddmmBackward</text>
</g>
<!-- 139646402415752&#45;&gt;139646402415584 -->
<g id="edge7" class="edge">
<title>139646402415752&#45;&gt;139646402415584</title>
<path fill="none" stroke="#000000" d="M138.1519,-330.3685C138.2972,-320.1925 138.5206,-304.5606 138.7016,-291.8912"/>
<polygon fill="#000000" stroke="#000000" points="142.2034,-291.7806 138.8467,-281.7315 135.2041,-291.6805 142.2034,-291.7806"/>
</g>
<!-- 139646402415864 -->
<g id="node9" class="node">
<title>139646402415864</title>
<polygon fill="#add8e6" stroke="#000000" points="123,-428 59,-428 59,-394 123,-394 123,-428"/>
<text text-anchor="middle" x="91" y="-414.4" font-family="Times,serif" font-size="12.00" fill="#000000">fc1.bias</text>
<text text-anchor="middle" x="91" y="-401.4" font-family="Times,serif" font-size="12.00" fill="#000000"> (400)</text>
</g>
<!-- 139646402415864&#45;&gt;139646402415752 -->
<g id="edge8" class="edge">
<title>139646402415864&#45;&gt;139646402415752</title>
<path fill="none" stroke="#000000" d="M102.618,-393.6966C109.43,-383.551 118.0497,-370.7131 125.0758,-360.2488"/>
<polygon fill="#000000" stroke="#000000" points="128.0858,-362.0445 130.7544,-351.7913 122.2743,-358.1425 128.0858,-362.0445"/>
</g>
<!-- 139646402415920 -->
<g id="node10" class="node">
<title>139646402415920</title>
<polygon fill="#d3d3d3" stroke="#000000" points="228.5,-421.5 141.5,-421.5 141.5,-400.5 228.5,-400.5 228.5,-421.5"/>
<text text-anchor="middle" x="185" y="-407.9" font-family="Times,serif" font-size="12.00" fill="#000000">TBackward</text>
</g>
<!-- 139646402415920&#45;&gt;139646402415752 -->
<g id="edge9" class="edge">
<title>139646402415920&#45;&gt;139646402415752</title>
<path fill="none" stroke="#000000" d="M177.8617,-400.3685C170.7532,-389.7814 159.6795,-373.2886 151.0059,-360.3705"/>
<polygon fill="#000000" stroke="#000000" points="153.6856,-358.0827 145.2055,-351.7315 147.8741,-361.9848 153.6856,-358.0827"/>
</g>
<!-- 139646402416032 -->
<g id="node11" class="node">
<title>139646402416032</title>
<polygon fill="#add8e6" stroke="#000000" points="225,-498 145,-498 145,-464 225,-464 225,-498"/>
<text text-anchor="middle" x="185" y="-484.4" font-family="Times,serif" font-size="12.00" fill="#000000">fc1.weight</text>
<text text-anchor="middle" x="185" y="-471.4" font-family="Times,serif" font-size="12.00" fill="#000000"> (400, 33)</text>
</g>
<!-- 139646402416032&#45;&gt;139646402415920 -->
<g id="edge10" class="edge">
<title>139646402416032&#45;&gt;139646402415920</title>
<path fill="none" stroke="#000000" d="M185,-463.6966C185,-454.0634 185,-442.003 185,-431.8518"/>
<polygon fill="#000000" stroke="#000000" points="188.5001,-431.7912 185,-421.7913 181.5001,-431.7913 188.5001,-431.7912"/>
</g>
<!-- 139646402415640 -->
<g id="node12" class="node">
<title>139646402415640</title>
<polygon fill="#d3d3d3" stroke="#000000" points="302.5,-281.5 215.5,-281.5 215.5,-260.5 302.5,-260.5 302.5,-281.5"/>
<text text-anchor="middle" x="259" y="-267.9" font-family="Times,serif" font-size="12.00" fill="#000000">TBackward</text>
</g>
<!-- 139646402415640&#45;&gt;139646402415416 -->
<g id="edge11" class="edge">
<title>139646402415640&#45;&gt;139646402415416</title>
<path fill="none" stroke="#000000" d="M240.7746,-260.3685C220.836,-248.7376 188.6789,-229.9793 165.8514,-216.6633"/>
<polygon fill="#000000" stroke="#000000" points="167.4051,-213.5177 157.0037,-211.5022 163.878,-219.5642 167.4051,-213.5177"/>
</g>
<!-- 139646402415808 -->
<g id="node13" class="node">
<title>139646402415808</title>
<polygon fill="#add8e6" stroke="#000000" points="301,-358 219,-358 219,-324 301,-324 301,-358"/>
<text text-anchor="middle" x="260" y="-344.4" font-family="Times,serif" font-size="12.00" fill="#000000">fc2.weight</text>
<text text-anchor="middle" x="260" y="-331.4" font-family="Times,serif" font-size="12.00" fill="#000000"> (300, 400)</text>
</g>
<!-- 139646402415808&#45;&gt;139646402415640 -->
<g id="edge12" class="edge">
<title>139646402415808&#45;&gt;139646402415640</title>
<path fill="none" stroke="#000000" d="M259.7528,-323.6966C259.6152,-314.0634 259.4429,-302.003 259.2979,-291.8518"/>
<polygon fill="#000000" stroke="#000000" points="262.7967,-291.7402 259.1542,-281.7913 255.7975,-291.8403 262.7967,-291.7402"/>
</g>
<!-- 139646402415304 -->
<g id="node14" class="node">
<title>139646402415304</title>
<polygon fill="#d3d3d3" stroke="#000000" points="302.5,-141.5 215.5,-141.5 215.5,-120.5 302.5,-120.5 302.5,-141.5"/>
<text text-anchor="middle" x="259" y="-127.9" font-family="Times,serif" font-size="12.00" fill="#000000">TBackward</text>
</g>
<!-- 139646402415304&#45;&gt;139646402412728 -->
<g id="edge13" class="edge">
<title>139646402415304&#45;&gt;139646402412728</title>
<path fill="none" stroke="#000000" d="M239.0821,-120.3715C219.947,-110.1608 190.8161,-94.6162 169.0869,-83.0212"/>
<polygon fill="#000000" stroke="#000000" points="170.4532,-79.7831 159.9829,-78.1631 167.1577,-85.9589 170.4532,-79.7831"/>
</g>
<!-- 139646402415472 -->
<g id="node15" class="node">
<title>139646402415472</title>
<polygon fill="#add8e6" stroke="#000000" points="300,-218 220,-218 220,-184 300,-184 300,-218"/>
<text text-anchor="middle" x="260" y="-204.4" font-family="Times,serif" font-size="12.00" fill="#000000">fc3.weight</text>
<text text-anchor="middle" x="260" y="-191.4" font-family="Times,serif" font-size="12.00" fill="#000000"> (4, 300)</text>
</g>
<!-- 139646402415472&#45;&gt;139646402415304 -->
<g id="edge14" class="edge">
<title>139646402415472&#45;&gt;139646402415304</title>
<path fill="none" stroke="#000000" d="M259.7528,-183.6966C259.6152,-174.0634 259.4429,-162.003 259.2979,-151.8518"/>
<polygon fill="#000000" stroke="#000000" points="262.7967,-151.7402 259.1542,-141.7913 255.7975,-151.8403 262.7967,-151.7402"/>
</g>
</g>
</svg>
