<?xml version="1.0" encoding="UTF-8" standalone="no"?>
<!DOCTYPE svg PUBLIC "-//W3C//DTD SVG 1.1//EN"
 "http://www.w3.org/Graphics/SVG/1.1/DTD/svg11.dtd">
<!-- Generated by graphviz version 2.40.1 (20161225.0304)
 -->
<!-- Title: %3 Pages: 1 -->
<svg width="346pt" height="506pt"
 viewBox="0.00 0.00 345.50 506.00" xmlns="http://www.w3.org/2000/svg" xmlns:xlink="http://www.w3.org/1999/xlink">
<g id="graph0" class="graph" transform="scale(1 1) rotate(0) translate(4 502)">
<title>%3</title>
<polygon fill="#ffffff" stroke="transparent" points="-4,4 -4,-502 341.5,-502 341.5,4 -4,4"/>
<!-- 139646402338656 -->
<g id="node1" class="node">
<title>139646402338656</title>
<polygon fill="#caff70" stroke="#000000" points="219.5,-21 94.5,-21 94.5,0 219.5,0 219.5,-21"/>
<text text-anchor="middle" x="157" y="-7.4" font-family="Times,serif" font-size="12.00" fill="#000000">AddmmBackward</text>
</g>
<!-- 139646402338768 -->
<g id="node2" class="node">
<title>139646402338768</title>
<polygon fill="#add8e6" stroke="#000000" points="64,-91 0,-91 0,-57 64,-57 64,-91"/>
<text text-anchor="middle" x="32" y="-77.4" font-family="Times,serif" font-size="12.00" fill="#000000">fc3.bias</text>
<text text-anchor="middle" x="32" y="-64.4" font-family="Times,serif" font-size="12.00" fill="#000000"> (1)</text>
</g>
<!-- 139646402338768&#45;&gt;139646402338656 -->
<g id="edge1" class="edge">
<title>139646402338768&#45;&gt;139646402338656</title>
<path fill="none" stroke="#000000" d="M64.1906,-57.6472C83.6216,-47.7762 108.2097,-35.2855 127.1953,-25.6408"/>
<polygon fill="#000000" stroke="#000000" points="128.9561,-28.6721 136.2865,-21.0225 125.7857,-22.4312 128.9561,-28.6721"/>
</g>
<!-- 139646402245688 -->
<g id="node3" class="node">
<title>139646402245688</title>
<polygon fill="#d3d3d3" stroke="#000000" points="232,-84.5 82,-84.5 82,-63.5 232,-63.5 232,-84.5"/>
<text text-anchor="middle" x="157" y="-70.9" font-family="Times,serif" font-size="12.00" fill="#000000">LeakyReluBackward0</text>
</g>
<!-- 139646402245688&#45;&gt;139646402338656 -->
<g id="edge2" class="edge">
<title>139646402245688&#45;&gt;139646402338656</title>
<path fill="none" stroke="#000000" d="M157,-63.2281C157,-54.5091 157,-41.9699 157,-31.3068"/>
<polygon fill="#000000" stroke="#000000" points="160.5001,-31.1128 157,-21.1128 153.5001,-31.1129 160.5001,-31.1128"/>
</g>
<!-- 139646402246024 -->
<g id="node4" class="node">
<title>139646402246024</title>
<polygon fill="#d3d3d3" stroke="#000000" points="219.5,-154.5 94.5,-154.5 94.5,-133.5 219.5,-133.5 219.5,-154.5"/>
<text text-anchor="middle" x="157" y="-140.9" font-family="Times,serif" font-size="12.00" fill="#000000">AddmmBackward</text>
</g>
<!-- 139646402246024&#45;&gt;139646402245688 -->
<g id="edge3" class="edge">
<title>139646402246024&#45;&gt;139646402245688</title>
<path fill="none" stroke="#000000" d="M157,-133.3685C157,-123.1925 157,-107.5606 157,-94.8912"/>
<polygon fill="#000000" stroke="#000000" points="160.5001,-94.7315 157,-84.7315 153.5001,-94.7316 160.5001,-94.7315"/>
</g>
<!-- 139646402246304 -->
<g id="node5" class="node">
<title>139646402246304</title>
<polygon fill="#add8e6" stroke="#000000" points="89,-231 25,-231 25,-197 89,-197 89,-231"/>
<text text-anchor="middle" x="57" y="-217.4" font-family="Times,serif" font-size="12.00" fill="#000000">fc2.bias</text>
<text text-anchor="middle" x="57" y="-204.4" font-family="Times,serif" font-size="12.00" fill="#000000"> (300)</text>
</g>
<!-- 139646402246304&#45;&gt;139646402246024 -->
<g id="edge4" class="edge">
<title>139646402246304&#45;&gt;139646402246024</title>
<path fill="none" stroke="#000000" d="M81.4628,-196.8761C97.2201,-185.8459 117.6031,-171.5778 133.2236,-160.6435"/>
<polygon fill="#000000" stroke="#000000" points="135.6142,-163.2424 141.7994,-154.6404 131.5999,-157.5078 135.6142,-163.2424"/>
</g>
<!-- 139646402246360 -->
<g id="node6" class="node">
<title>139646402246360</title>
<polygon fill="#d3d3d3" stroke="#000000" points="207,-224.5 107,-224.5 107,-203.5 207,-203.5 207,-224.5"/>
<text text-anchor="middle" x="157" y="-210.9" font-family="Times,serif" font-size="12.00" fill="#000000">CatBackward</text>
</g>
<!-- 139646402246360&#45;&gt;139646402246024 -->
<g id="edge5" class="edge">
<title>139646402246360&#45;&gt;139646402246024</title>
<path fill="none" stroke="#000000" d="M157,-203.3685C157,-193.1925 157,-177.5606 157,-164.8912"/>
<polygon fill="#000000" stroke="#000000" points="160.5001,-164.7315 157,-154.7315 153.5001,-164.7316 160.5001,-164.7315"/>
</g>
<!-- 139646402246528 -->
<g id="node7" class="node">
<title>139646402246528</title>
<polygon fill="#d3d3d3" stroke="#000000" points="226,-294.5 76,-294.5 76,-273.5 226,-273.5 226,-294.5"/>
<text text-anchor="middle" x="151" y="-280.9" font-family="Times,serif" font-size="12.00" fill="#000000">LeakyReluBackward0</text>
</g>
<!-- 139646402246528&#45;&gt;139646402246360 -->
<g id="edge6" class="edge">
<title>139646402246528&#45;&gt;139646402246360</title>
<path fill="none" stroke="#000000" d="M151.9113,-273.3685C152.7835,-263.1925 154.1234,-247.5606 155.2093,-234.8912"/>
<polygon fill="#000000" stroke="#000000" points="158.7133,-234.9939 156.0802,-224.7315 151.7388,-234.3961 158.7133,-234.9939"/>
</g>
<!-- 139646402246640 -->
<g id="node8" class="node">
<title>139646402246640</title>
<polygon fill="#d3d3d3" stroke="#000000" points="213.5,-358 88.5,-358 88.5,-337 213.5,-337 213.5,-358"/>
<text text-anchor="middle" x="151" y="-344.4" font-family="Times,serif" font-size="12.00" fill="#000000">AddmmBackward</text>
</g>
<!-- 139646402246640&#45;&gt;139646402246528 -->
<g id="edge7" class="edge">
<title>139646402246640&#45;&gt;139646402246528</title>
<path fill="none" stroke="#000000" d="M151,-336.7281C151,-328.0091 151,-315.4699 151,-304.8068"/>
<polygon fill="#000000" stroke="#000000" points="154.5001,-304.6128 151,-294.6128 147.5001,-304.6129 154.5001,-304.6128"/>
</g>
<!-- 139646402246752 -->
<g id="node9" class="node">
<title>139646402246752</title>
<polygon fill="#add8e6" stroke="#000000" points="138,-428 68,-428 68,-394 138,-394 138,-428"/>
<text text-anchor="middle" x="103" y="-414.4" font-family="Times,serif" font-size="12.00" fill="#000000">fcs1.bias</text>
<text text-anchor="middle" x="103" y="-401.4" font-family="Times,serif" font-size="12.00" fill="#000000"> (400)</text>
</g>
<!-- 139646402246752&#45;&gt;139646402246640 -->
<g id="edge8" class="edge">
<title>139646402246752&#45;&gt;139646402246640</title>
<path fill="none" stroke="#000000" d="M115.8631,-393.9832C122.278,-385.4969 130.0567,-375.2062 136.6629,-366.4668"/>
<polygon fill="#000000" stroke="#000000" points="139.5462,-368.4566 142.7843,-358.3687 133.9621,-364.2355 139.5462,-368.4566"/>
</g>
<!-- 139646402246808 -->
<g id="node10" class="node">
<title>139646402246808</title>
<polygon fill="#d3d3d3" stroke="#000000" points="243.5,-421.5 156.5,-421.5 156.5,-400.5 243.5,-400.5 243.5,-421.5"/>
<text text-anchor="middle" x="200" y="-407.9" font-family="Times,serif" font-size="12.00" fill="#000000">TBackward</text>
</g>
<!-- 139646402246808&#45;&gt;139646402246640 -->
<g id="edge9" class="edge">
<title>139646402246808&#45;&gt;139646402246640</title>
<path fill="none" stroke="#000000" d="M191.6878,-400.2281C184.5349,-390.9585 174.0498,-377.3707 165.5151,-366.3104"/>
<polygon fill="#000000" stroke="#000000" points="168.0696,-363.8916 159.1894,-358.1128 162.5277,-368.168 168.0696,-363.8916"/>
</g>
<!-- 139646402246920 -->
<g id="node11" class="node">
<title>139646402246920</title>
<polygon fill="#add8e6" stroke="#000000" points="243,-498 157,-498 157,-464 243,-464 243,-498"/>
<text text-anchor="middle" x="200" y="-484.4" font-family="Times,serif" font-size="12.00" fill="#000000">fcs1.weight</text>
<text text-anchor="middle" x="200" y="-471.4" font-family="Times,serif" font-size="12.00" fill="#000000"> (400, 33)</text>
</g>
<!-- 139646402246920&#45;&gt;139646402246808 -->
<g id="edge10" class="edge">
<title>139646402246920&#45;&gt;139646402246808</title>
<path fill="none" stroke="#000000" d="M200,-463.6966C200,-454.0634 200,-442.003 200,-431.8518"/>
<polygon fill="#000000" stroke="#000000" points="203.5001,-431.7912 200,-421.7913 196.5001,-431.7913 203.5001,-431.7912"/>
</g>
<!-- 139646402246416 -->
<g id="node12" class="node">
<title>139646402246416</title>
<polygon fill="#d3d3d3" stroke="#000000" points="323.5,-224.5 236.5,-224.5 236.5,-203.5 323.5,-203.5 323.5,-224.5"/>
<text text-anchor="middle" x="280" y="-210.9" font-family="Times,serif" font-size="12.00" fill="#000000">TBackward</text>
</g>
<!-- 139646402246416&#45;&gt;139646402246024 -->
<g id="edge11" class="edge">
<title>139646402246416&#45;&gt;139646402246024</title>
<path fill="none" stroke="#000000" d="M261.3189,-203.3685C240.791,-191.6859 207.6276,-172.8125 184.2113,-159.4861"/>
<polygon fill="#000000" stroke="#000000" points="185.8761,-156.4065 175.4538,-154.5022 182.4138,-162.4903 185.8761,-156.4065"/>
</g>
<!-- 139646402246584 -->
<g id="node13" class="node">
<title>139646402246584</title>
<polygon fill="#add8e6" stroke="#000000" points="326,-301 244,-301 244,-267 326,-267 326,-301"/>
<text text-anchor="middle" x="285" y="-287.4" font-family="Times,serif" font-size="12.00" fill="#000000">fc2.weight</text>
<text text-anchor="middle" x="285" y="-274.4" font-family="Times,serif" font-size="12.00" fill="#000000"> (300, 404)</text>
</g>
<!-- 139646402246584&#45;&gt;139646402246416 -->
<g id="edge12" class="edge">
<title>139646402246584&#45;&gt;139646402246416</title>
<path fill="none" stroke="#000000" d="M283.764,-266.6966C283.076,-257.0634 282.2145,-245.003 281.4894,-234.8518"/>
<polygon fill="#000000" stroke="#000000" points="284.9745,-234.5165 280.7708,-224.7913 277.9923,-235.0153 284.9745,-234.5165"/>
</g>
<!-- 139646402245520 -->
<g id="node14" class="node">
<title>139646402245520</title>
<polygon fill="#d3d3d3" stroke="#000000" points="337.5,-84.5 250.5,-84.5 250.5,-63.5 337.5,-63.5 337.5,-84.5"/>
<text text-anchor="middle" x="294" y="-70.9" font-family="Times,serif" font-size="12.00" fill="#000000">TBackward</text>
</g>
<!-- 139646402245520&#45;&gt;139646402338656 -->
<g id="edge13" class="edge">
<title>139646402245520&#45;&gt;139646402338656</title>
<path fill="none" stroke="#000000" d="M271.0693,-63.3715C248.6447,-52.9776 214.2958,-37.0568 189.1488,-25.4011"/>
<polygon fill="#000000" stroke="#000000" points="190.5502,-22.193 180.0055,-21.1631 187.6065,-28.544 190.5502,-22.193"/>
</g>
<!-- 139646402246248 -->
<g id="node15" class="node">
<title>139646402246248</title>
<polygon fill="#add8e6" stroke="#000000" points="334,-161 254,-161 254,-127 334,-127 334,-161"/>
<text text-anchor="middle" x="294" y="-147.4" font-family="Times,serif" font-size="12.00" fill="#000000">fc3.weight</text>
<text text-anchor="middle" x="294" y="-134.4" font-family="Times,serif" font-size="12.00" fill="#000000"> (1, 300)</text>
</g>
<!-- 139646402246248&#45;&gt;139646402245520 -->
<g id="edge14" class="edge">
<title>139646402246248&#45;&gt;139646402245520</title>
<path fill="none" stroke="#000000" d="M294,-126.6966C294,-117.0634 294,-105.003 294,-94.8518"/>
<polygon fill="#000000" stroke="#000000" points="297.5001,-94.7912 294,-84.7913 290.5001,-94.7913 297.5001,-94.7912"/>
</g>
</g>
</svg>
